<?xml version="1.0" standalone="no"?>
        <!DOCTYPE svg PUBLIC "-//W3C//DTD SVG 1.1//EN" 
        "http://www.w3.org/Graphics/SVG/1.1/DTD/svg11.dtd"><svg id="changeColor" fill="#DC7633" xmlns="http://www.w3.org/2000/svg" xmlns:xlink="http://www.w3.org/1999/xlink" width="64" zoomAndPan="magnify" viewBox="0 0 375 374.9999" height="64" version="1.0"><defs><path id="pathAttribute" d="M 11.972656 11.972656 L 359.222656 11.972656 L 359.222656 359.222656 L 11.972656 359.222656 Z M 11.972656 11.972656 " fill="blue"></path></defs><g><path id="pathAttribute" d="M 185.597656 359.222656 C 89.675781 359.222656 11.972656 280.984375 11.972656 185.597656 C 11.972656 90.210938 89.675781 11.972656 185.597656 11.972656 C 281.519531 11.972656 359.222656 89.675781 359.222656 185.597656 C 359.222656 281.519531 280.984375 359.222656 185.597656 359.222656 Z M 185.597656 22.691406 C 95.570312 22.691406 22.691406 95.570312 22.691406 185.597656 C 22.691406 275.625 95.570312 348.503906 185.597656 348.503906 C 275.625 348.503906 348.503906 275.625 348.503906 185.597656 C 348.503906 95.570312 275.089844 22.691406 185.597656 22.691406 Z M 185.597656 22.691406 " fill-opacity="1" fill-rule="nonzero" fill="blue"></path></g><g id="inner-icon" transform="translate(85, 75)"> <svg xmlns="http://www.w3.org/2000/svg" width="200" height="200" viewBox="0 0 32 32" id="IconChangeColor"> <path d="M15.927 23.959l-9.823-5.797 9.817 13.839 9.828-13.839-9.828 5.797zM16.073 0l-9.819 16.297 9.819 5.807 9.823-5.801z" id="mainIconPathAttribute" fill="blue"></path> </svg> </g></svg>