<?xml version="1.0" standalone="no"?>
        <!DOCTYPE svg PUBLIC "-//W3C//DTD SVG 1.1//EN" 
        "http://www.w3.org/Graphics/SVG/1.1/DTD/svg11.dtd"><svg id="changeColor" fill="#DC7633" xmlns="http://www.w3.org/2000/svg" xmlns:xlink="http://www.w3.org/1999/xlink" width="24" zoomAndPan="magnify" viewBox="0 0 375 374.9999" height="24" version="1.0"><defs><path id="pathAttribute" d="M 11.972656 11.972656 L 359.222656 11.972656 L 359.222656 359.222656 L 11.972656 359.222656 Z M 11.972656 11.972656 "></path></defs><g><path id="pathAttribute" d="M 185.597656 359.222656 C 89.675781 359.222656 11.972656 280.984375 11.972656 185.597656 C 11.972656 90.210938 89.675781 11.972656 185.597656 11.972656 C 281.519531 11.972656 359.222656 89.675781 359.222656 185.597656 C 359.222656 281.519531 280.984375 359.222656 185.597656 359.222656 Z M 185.597656 22.691406 C 95.570312 22.691406 22.691406 95.570312 22.691406 185.597656 C 22.691406 275.625 95.570312 348.503906 185.597656 348.503906 C 275.625 348.503906 348.503906 275.625 348.503906 185.597656 C 348.503906 95.570312 275.089844 22.691406 185.597656 22.691406 Z M 185.597656 22.691406 " fill-opacity="1" fill-rule="nonzero"></path></g><g id="inner-icon" transform="translate(85, 75)"> <svg xmlns="http://www.w3.org/2000/svg" width="228" height="228" fill="currentColor" class="bi bi-currency-bitcoin" viewBox="0 0 16 16" id="IconChangeColor"> <path d="M5.5 13v1.25c0 .138.112.25.25.25h1a.25.25 0 0 0 .25-.25V13h.5v1.25c0 .138.112.25.25.25h1a.25.25 0 0 0 .25-.25V13h.084c1.992 0 3.416-1.033 3.416-2.82 0-1.502-1.007-2.323-2.186-2.44v-.088c.97-.242 1.683-.974 1.683-2.19C11.997 3.93 10.847 3 9.092 3H9V1.75a.25.25 0 0 0-.25-.25h-1a.25.25 0 0 0-.25.25V3h-.573V1.75a.25.25 0 0 0-.25-.25H5.75a.25.25 0 0 0-.25.25V3l-1.998.011a.25.25 0 0 0-.25.25v.989c0 .137.11.25.248.25l.755-.005a.75.75 0 0 1 .745.75v5.505a.75.75 0 0 1-.75.75l-.748.011a.25.25 0 0 0-.25.25v1c0 .138.112.25.25.25L5.5 13zm1.427-8.513h1.719c.906 0 1.438.498 1.438 1.312 0 .871-.575 1.362-1.877 1.362h-1.28V4.487zm0 4.051h1.84c1.137 0 1.756.58 1.756 1.524 0 .953-.626 1.45-2.158 1.45H6.927V8.539z" id="mainIconPathAttribute"></path> </svg> </g></svg>