<?xml version="1.0" standalone="no"?>
        <!DOCTYPE svg PUBLIC "-//W3C//DTD SVG 1.1//EN" 
        "http://www.w3.org/Graphics/SVG/1.1/DTD/svg11.dtd"><svg id="changeColor" fill="#DC7633" xmlns="http://www.w3.org/2000/svg" xmlns:xlink="http://www.w3.org/1999/xlink" width="200" zoomAndPan="magnify" viewBox="0 0 375 374.9999" height="200" preserveAspectRatio="xMidYMid meet" version="1.0"><defs><path id="pathAttribute" d="M 20.894531 20.894531 L 354.644531 20.894531 L 354.644531 354.644531 L 20.894531 354.644531 Z M 20.894531 20.894531 " clip-rule="nonzero" fill="blue"></path></defs><g><path id="pathAttribute" d="M 305.765625 69.773438 C 240.597656 4.601562 134.9375 4.601562 69.765625 69.773438 C 4.601562 134.9375 4.601562 240.601562 69.765625 305.769531 C 134.9375 370.933594 240.597656 370.933594 305.765625 305.769531 C 370.9375 240.601562 370.9375 134.9375 305.765625 69.773438 Z M 187.765625 354.167969 L 21.371094 187.765625 L 187.765625 21.371094 L 354.164062 187.773438 Z M 187.765625 354.167969 " fill-opacity="1" fill-rule="nonzero" fill="blue"></path></g><g id="inner-icon" transform="translate(85, 75)"> <svg xmlns="http://www.w3.org/2000/svg" width="199.8" height="199.8" viewBox="0 0 32 32" id="IconChangeColor"> <path d="M15.927 23.959l-9.823-5.797 9.817 13.839 9.828-13.839-9.828 5.797zM16.073 0l-9.819 16.297 9.819 5.807 9.823-5.801z" id="mainIconPathAttribute" fill="blue"></path> </svg> </g></svg>